<svg xmlns="http://www.w3.org/2000/svg" xmlns:xlink="http://www.w3.org/1999/xlink" width="3000" zoomAndPan="magnify" viewBox="0 0 2250 2250.000011" height="3000" preserveAspectRatio="xMidYMid meet" version="1.0"><defs><clipPath id="08d607ed22"><path d="M 117.753906 171.253906 L 2127 171.253906 L 2127 2022 L 117.753906 2022 Z M 117.753906 171.253906 " clip-rule="nonzero"/></clipPath></defs><g clip-path="url(#08d607ed22)"><path fill="#ffffff" d="M 917.859375 225.425781 C 982.480469 188.03125 1053.199219 170.554688 1123.105469 170.757812 C 1193.011719 170.554688 1263.730469 188.03125 1328.355469 225.425781 C 1370.21875 249.609375 1406.1875 280.089844 1435.855469 315.246094 L 1436.871094 316.464844 C 1437.890625 317.683594 1438.90625 318.90625 1439.921875 320.125 C 1453.941406 337.195312 1466.949219 355.6875 1478.328125 375.601562 L 2072.332031 1404.285156 C 2185.117188 1599.777344 2117.648438 1851.96875 1922.152344 1964.957031 C 1726.660156 2077.742188 1474.46875 2010.074219 1361.480469 1814.578125 L 1262.511719 1643.0625 C 1179.601562 1499.59375 1074.539062 1273.820312 966.222656 1166.722656 C 850.796875 1052.921875 692.289062 982.609375 517.519531 982.609375 C 481.753906 982.609375 446.597656 985.65625 412.253906 991.347656 L 726.019531 447.945312 C 750.8125 404.863281 774.589844 358.53125 806.292969 320.125 C 807.308594 318.90625 808.324219 317.683594 809.339844 316.464844 L 810.355469 315.246094 C 840.027344 280.089844 875.996094 249.609375 917.859375 225.425781 Z M 517.519531 1221.796875 C 738.214844 1221.796875 917.246094 1400.828125 917.246094 1621.523438 C 917.246094 1842.417969 738.214844 2021.25 517.519531 2021.25 C 296.828125 2021.25 117.792969 1842.417969 117.792969 1621.523438 C 117.792969 1400.828125 296.828125 1221.796875 517.519531 1221.796875 Z M 517.519531 1221.796875 " fill-opacity="1" fill-rule="evenodd"/></g></svg>